<svg width="30" height="30" viewBox="0 0 30 30" fill="none" xmlns="http://www.w3.org/2000/svg">
<g clip-path="url(#clip0_1_274)">
<path d="M27.6562 16.2938V11.6859L28.889 10.6734C28.9469 10.6282 28.9929 10.5696 29.0231 10.5026C29.0533 10.4357 29.0668 10.3624 29.0625 10.2891C29.0575 10.2154 29.0359 10.1439 28.9994 10.0797C28.9629 10.0156 28.9123 9.96058 28.8515 9.91876L15.2578 1.01251C15.1804 0.964256 15.0911 0.938675 15 0.938675C14.9088 0.938675 14.8195 0.964256 14.7421 1.01251L1.14838 9.91876C1.08758 9.96058 1.03702 10.0156 1.00049 10.0797C0.963958 10.1439 0.942407 10.2154 0.937446 10.2891C0.933085 10.3624 0.94659 10.4357 0.9768 10.5026C1.00701 10.5696 1.05302 10.6282 1.11088 10.6734L6.0937 14.7516V15.0188C5.46553 16.3532 5.14524 17.8116 5.15649 19.2865C5.16774 20.7613 5.51024 22.2147 6.15869 23.5394C6.80713 24.864 7.74495 26.026 8.90284 26.9396C10.0607 27.8531 11.4091 28.4947 12.8483 28.8171C14.2875 29.1395 15.7807 29.1343 17.2176 28.8021C18.6546 28.4698 19.9985 27.8189 21.1501 26.8974C22.3017 25.976 23.2315 24.8075 23.8708 23.4785C24.5101 22.1494 24.8426 20.6936 24.8437 19.2188C24.8475 17.7665 24.5272 16.3316 23.9062 15.0188V14.7516L26.7187 12.45V16.2938L25.5703 18.5906C25.4631 18.8052 25.4127 19.0437 25.4237 19.2833C25.4347 19.5229 25.5068 19.7557 25.6332 19.9596C25.7595 20.1635 25.936 20.3317 26.1456 20.4481C26.3553 20.5646 26.5913 20.6255 26.8312 20.625H27.5437C27.7836 20.6255 28.0196 20.5646 28.2293 20.4481C28.439 20.3317 28.6154 20.1635 28.7417 19.9596C28.8681 19.7557 28.9402 19.5229 28.9512 19.2833C28.9623 19.0437 28.9118 18.8052 28.8046 18.5906L27.6562 16.2938ZM11.2593 18.75C11.2751 16.8755 11.6112 15.0175 12.2531 13.2563C13.1659 13.166 14.0827 13.1222 15 13.125C15.9172 13.1222 16.834 13.166 17.7468 13.2563C18.3887 15.0175 18.7248 16.8755 18.7406 18.75H11.2593ZM18.7406 19.6875C18.7207 21.1326 18.5239 22.5699 18.1546 23.9672C16.1108 23.2609 13.8891 23.2609 11.8453 23.9672C11.476 22.5699 11.2792 21.1326 11.2593 19.6875H18.7406ZM15 12.1875C11.7937 12.1875 8.57339 12.6984 7.0312 13.6781V10.7813C7.0312 10.1438 9.8437 8.90626 15 8.90626C20.1562 8.90626 22.9687 10.1438 22.9687 10.7813V13.6781C21.4265 12.6984 18.2062 12.1875 15 12.1875ZM11.2031 13.3828C10.639 15.1169 10.3419 16.9266 10.3218 18.75H6.10776C6.1657 17.5634 6.4639 16.4008 6.98432 15.3328C7.01584 15.2687 7.0319 15.198 7.0312 15.1266V15C7.0312 14.5453 8.48432 13.7813 11.2031 13.3828ZM6.11714 19.6875H10.3218C10.344 21.2494 10.5629 22.8022 10.9734 24.3094C10.2062 24.6556 9.48638 25.0983 8.8312 25.6266C7.2031 24.0648 6.23237 21.9406 6.11714 19.6875ZM9.55307 26.25C10.0805 25.8383 10.6529 25.4876 11.2593 25.2047C11.5762 26.1496 12.0587 27.0305 12.6843 27.8063C11.5474 27.501 10.4829 26.9719 9.55307 26.25ZM15 28.125C13.95 28.125 12.8578 26.9156 12.1265 24.8625C13.987 24.2125 16.0129 24.2125 17.8734 24.8625C17.1421 26.9156 16.05 28.125 15 28.125ZM17.3156 27.8063C17.9412 27.0305 18.4237 26.1496 18.7406 25.2047C19.347 25.4876 19.9194 25.8383 20.4468 26.25C19.517 26.9719 18.4525 27.501 17.3156 27.8063ZM21.1687 25.6266C20.5135 25.0983 19.7937 24.6556 19.0265 24.3094C19.437 22.8022 19.6559 21.2494 19.6781 19.6875H23.8828C23.7675 21.9406 22.7968 24.0648 21.1687 25.6266ZM19.6781 18.75C19.658 16.9266 19.3609 15.1169 18.7968 13.3828C21.5156 13.7813 22.9687 14.5453 22.9687 15V15.1266C22.968 15.198 22.9841 15.2687 23.0156 15.3328C23.536 16.4008 23.8342 17.5634 23.8921 18.75H19.6781ZM23.9062 13.5422V10.7813C23.9062 8.93438 19.425 7.96876 15 7.96876C10.5749 7.96876 6.0937 8.93438 6.0937 10.7813V13.5422L2.19838 10.3547L15 1.96876L27.8015 10.3547L23.9062 13.5422ZM27.9421 19.4672C27.9011 19.5358 27.8426 19.5924 27.7726 19.6311C27.7026 19.6698 27.6237 19.6892 27.5437 19.6875H26.8312C26.7513 19.6892 26.6723 19.6698 26.6023 19.6311C26.5323 19.5924 26.4738 19.5358 26.4328 19.4672C26.3901 19.399 26.3655 19.3209 26.3614 19.2406C26.3573 19.1602 26.3738 19.08 26.4093 19.0078L27.1875 17.4563L27.9656 19.0078C28.0011 19.08 28.0176 19.1602 28.0135 19.2406C28.0094 19.3209 27.9849 19.399 27.9421 19.4672Z" fill="white"/>
</g>
<defs>
<clipPath id="clip0_1_274">
<rect width="30" height="30" fill="white"/>
</clipPath>
</defs>
</svg>
